<svg width="222" height="53" viewBox="0 0 222 53" fill="none" xmlns="http://www.w3.org/2000/svg">
<path d="M9.49154 10.3856L9.49206 10.385C10.4704 9.1658 11.7502 8.51586 13.7839 8.17497C15.873 7.8248 18.6186 7.82153 22.4466 7.82153H30.4945C34.3225 7.82153 37.0681 7.8248 39.1572 8.17497C41.1909 8.51586 42.4706 9.1658 43.449 10.385C44.9694 12.2809 45.435 15.1317 45.5463 20.6148L45.5464 20.6176C45.5518 20.853 45.392 21.0272 45.2543 21.0718L45.2518 21.0726C43.0136 21.8035 41.5623 24.2274 41.5623 26.8732V26.874C41.5634 28.1545 41.9032 29.4166 42.5518 30.4639C43.2007 31.5115 44.1397 32.3094 45.2548 32.6734C45.3963 32.7209 45.5549 32.8941 45.5504 33.1336C45.437 38.6129 44.9733 41.4651 43.4495 43.3607L43.4488 43.3617C42.4715 44.5805 41.192 45.2304 39.1579 45.5713C37.0686 45.9215 34.3225 45.9248 30.4945 45.9248H22.4466C18.6186 45.9248 15.873 45.9215 13.7839 45.5714C11.7502 45.2305 10.4704 44.5805 9.49206 43.3613C7.97164 41.4655 7.50608 38.6146 7.39475 33.1315L7.39469 33.1288C7.38923 32.8918 7.54816 32.7194 7.68676 32.6746L7.6893 32.6737C9.92749 31.9428 11.3787 29.5189 11.3787 26.8732L11.3787 26.8727C11.3781 25.592 11.0384 24.3295 10.3897 23.282C9.74073 22.2343 8.80146 21.4365 7.68611 21.0728C7.54545 21.0255 7.38593 20.8503 7.39074 20.6122C7.50414 15.1333 7.96784 12.2811 9.49154 10.3856Z" stroke="#022543" stroke-width="2"/>
<path d="M27.3572 39.0383C27.3782 39.4555 27.9442 39.8009 29.0551 40.0745C29.6797 40.2283 30.2855 40.6138 30.3561 41.2532C30.3746 41.4208 30.3757 41.5872 30.3595 41.7523C30.2882 42.4766 29.5271 42.8432 28.7996 42.8207C24.4137 42.6854 20.9181 42.6461 18.3128 42.7029C17.593 42.7186 16.831 42.3647 16.7659 41.6476C16.7543 41.5194 16.7541 41.3906 16.7655 41.2614C16.8222 40.6143 17.4534 40.2348 18.0928 40.1201C19.6562 39.8396 20.4491 39.479 20.4714 39.0383C20.5208 37.7956 20.5474 34.1624 20.551 28.1389C20.5515 27.3246 19.8913 26.6626 19.077 26.6626C18.4794 26.6626 17.9133 26.3055 17.8132 25.7163C17.7425 25.2996 17.741 24.8882 17.809 24.4822C17.9065 23.8993 18.471 23.5535 19.0619 23.5535H19.2509C19.9691 23.5535 20.5514 22.9712 20.5514 22.2529C20.5514 18.8795 21.4121 16.021 23.1336 13.6773C24.8551 11.32 27.3105 10.1414 30.4998 10.1414C32.1145 10.1414 33.4757 10.5749 34.5833 11.4419C35.6909 12.2954 36.2447 13.4334 36.2447 14.8559C36.2447 15.7636 35.9377 16.5561 35.3239 17.2335C34.71 17.8973 33.9094 18.2293 32.9219 18.2293C32.1078 18.2293 31.474 18.0193 31.0203 17.5993C30.5665 17.1793 30.3397 16.651 30.3397 16.0142C30.3397 15.5359 30.4104 15.1293 30.5519 14.7946C30.7817 14.2508 30.7688 13.5235 30.1785 13.5153C30.1364 13.5147 30.0786 13.5182 30.0373 13.5263C29.2245 13.6854 28.5513 14.115 28.0177 14.8153C27.4706 15.5333 27.197 16.4342 27.197 17.518V21.5535C27.197 22.658 28.0925 23.5535 29.197 23.5535H29.9343C30.7482 23.5535 31.5365 24.0444 31.5995 24.8558C31.614 25.0423 31.6145 25.2272 31.6009 25.4107C31.5427 26.1984 30.7716 26.6626 29.9817 26.6626H29.197C28.0925 26.6626 27.1967 27.5597 27.199 28.6642C27.2094 33.8675 27.2621 37.3255 27.3572 39.0383ZM30.0995 12.3157C31.4339 12.3157 32.3947 12.5596 32.9819 13.0473C33.5691 13.535 33.8626 14.1108 33.8626 14.7746C33.8626 15.5717 33.629 16.1176 33.1617 16.4123C32.9671 16.535 32.7553 16.6399 32.714 16.8662C32.6421 17.2609 33.1008 17.5394 33.4882 17.4353C33.9263 17.3175 34.318 17.0742 34.6633 16.7052C35.1704 16.1633 35.424 15.5468 35.424 14.8559C35.424 13.6908 34.9502 12.756 34.0028 12.0516C33.0686 11.3335 31.901 10.9745 30.4998 10.9745C27.5773 10.9745 25.3221 12.0651 23.7341 14.2463C22.1594 16.4274 21.3721 19.0963 21.3721 22.2529V22.7468C21.3721 23.6525 20.6379 24.3866 19.7323 24.3866H19.3976C18.9548 24.3866 18.5257 24.6217 18.5199 25.0645C18.5137 25.5313 18.9786 25.8498 19.4454 25.8498H19.7736C20.6564 25.8498 21.3722 26.5675 21.3717 27.4503C21.368 33.9602 21.3415 37.8364 21.292 39.079C21.2674 40.0057 20.2963 40.6314 18.3787 40.9562C18.0723 41.0081 17.7443 41.2197 17.7392 41.5304C17.7338 41.8559 18.0842 41.9755 18.4094 41.962C21.6183 41.8287 25.0866 41.83 28.8145 41.9658C29.1284 41.9772 29.4591 41.8565 29.4589 41.5424C29.4587 41.2289 29.1288 41.0131 28.8173 40.9781C25.9868 40.6601 24.5526 40.027 24.5148 39.079C24.419 37.1835 24.3662 33.4409 24.3563 27.8512C24.3544 26.7466 25.2501 25.8498 26.3546 25.8498H29.7721C30.2148 25.8498 30.644 25.6147 30.6498 25.1719C30.6559 24.7051 30.191 24.3866 29.7242 24.3866H26.3546C25.2501 24.3866 24.3546 23.4912 24.3546 22.3866V18.4731C24.3546 16.8339 24.9151 15.3978 26.036 14.165C27.157 12.9322 28.5115 12.3157 30.0995 12.3157Z" fill="#022543"/>
<path d="M36.8494 13.4967L36.8494 13.4967L36.8483 13.4948L36.697 13.2256L36.6959 13.2235L36.6816 13.1979C36.4039 12.6981 36.1687 12.2748 35.944 11.9814C35.7145 11.6818 35.4023 11.3918 34.9437 11.3918C34.4852 11.3918 34.173 11.6818 33.9434 11.9812C33.7193 12.2736 33.4844 12.6953 33.207 13.193C33.2011 13.2037 33.1951 13.2144 33.1892 13.2251L33.189 13.2254L33.0386 13.4959C32.8498 13.8322 32.8193 13.8666 32.7916 13.8877C32.7693 13.9047 32.7359 13.9234 32.3697 14.0054L32.3697 14.0054L32.3661 14.0063L32.075 14.0738C32.0604 14.077 32.0459 14.0803 32.0315 14.0836C31.4983 14.204 31.0418 14.3071 30.7053 14.4392C30.3502 14.5787 29.9999 14.7994 29.8649 15.2323L29.8648 15.2327C29.732 15.6603 29.8868 16.0437 30.0916 16.369C30.2883 16.6813 30.5991 17.0443 30.9652 17.4718L30.9905 17.5013L30.9908 17.5017L31.1906 17.7356L31.1906 17.7356L31.1919 17.7371C31.4419 18.0273 31.4633 18.0664 31.4746 18.1033C31.4878 18.1461 31.4911 18.1981 31.4548 18.5835C31.4548 18.5839 31.4548 18.5842 31.4547 18.5846L31.4242 18.8953L31.4241 18.8961L31.4204 18.9341C31.365 19.5064 31.3183 19.9896 31.3349 20.3615C31.3519 20.7421 31.4393 21.1545 31.7985 21.4265L32.0873 21.0452L31.7985 21.4265C32.1652 21.7043 32.585 21.6633 32.9474 21.5594C33.295 21.4598 33.7233 21.2627 34.2239 21.0324L34.2598 21.0159L34.2613 21.0152L34.537 20.8895L34.5383 20.8889C34.8812 20.7313 34.917 20.7265 34.9437 20.7265C34.9692 20.7265 35.0042 20.7311 35.35 20.8893L35.3505 20.8895L35.6253 21.0148L35.6276 21.0159L35.6473 21.025C36.1543 21.2593 36.5875 21.4595 36.9392 21.5601C37.3027 21.664 37.7215 21.7036 38.0882 21.4271L38.089 21.4265C38.4481 21.1545 38.5356 20.7421 38.5526 20.3615C38.5692 19.9896 38.5224 19.5064 38.467 18.9341L38.4634 18.8961L38.4633 18.8953L38.4325 18.5824L38.4325 18.5824C38.3945 18.1966 38.399 18.147 38.4115 18.1074L38.4124 18.1046C38.4241 18.0671 38.4475 18.0233 38.694 17.7371L38.6953 17.7356L38.8951 17.5017L38.8954 17.5013L38.9207 17.4718C39.2868 17.0443 39.5976 16.6813 39.7943 16.369C39.9992 16.0437 40.1539 15.6603 40.0211 15.2327L40.021 15.2323C39.8861 14.7994 39.5358 14.5787 39.1809 14.4393C38.8449 14.3072 38.3892 14.2042 37.8572 14.0839L37.8133 14.0739L37.8112 14.0735L37.5192 14.0061L37.5192 14.0061L37.5162 14.0054C37.1481 13.923 37.1182 13.906 37.095 13.8883L37.0943 13.8877C37.0672 13.8671 37.0362 13.8328 36.8494 13.4967Z" fill="white" stroke="#022543"/>
<path d="M37.0959 13.6629L37.0959 13.6629L37.0949 13.661L36.9554 13.4076L36.9543 13.4056L36.9402 13.3798C36.6848 12.9107 36.467 12.5107 36.2584 12.2328C36.0465 11.9504 35.748 11.6624 35.3019 11.6624C34.8558 11.6624 34.5574 11.9503 34.3454 12.2326C34.1373 12.5096 33.9198 12.9081 33.6647 13.3753C33.659 13.3859 33.6532 13.3965 33.6473 13.4071L33.6472 13.4075L33.5089 13.6612C33.5087 13.6615 33.5086 13.6618 33.5084 13.662C33.3327 13.9814 33.3078 14.0067 33.2891 14.0212L33.289 14.0213C33.2884 14.0218 33.2862 14.0235 33.2793 14.0268C33.2711 14.0309 33.2554 14.0376 33.2264 14.0469C33.1616 14.0677 33.0734 14.0884 32.9166 14.1243L32.9166 14.1242L32.913 14.1251L32.6445 14.1886C32.6302 14.1919 32.616 14.1952 32.6018 14.1985C32.1123 14.3113 31.688 14.4091 31.3743 14.5348C31.0398 14.6688 30.7064 14.8831 30.5786 15.3014L30.5784 15.3019C30.4534 15.7126 30.5995 16.08 30.7904 16.3893C30.973 16.6852 31.2609 17.0284 31.5977 17.4298L31.6221 17.4589L31.6225 17.4593L31.8067 17.6794L31.8067 17.6794L31.808 17.681C32.0399 17.9556 32.0549 17.9876 32.0636 18.0163C32.0743 18.0519 32.0781 18.0963 32.0446 18.4607C32.0445 18.4611 32.0445 18.4614 32.0445 18.4618L32.0163 18.7543L32.0162 18.7551L32.0127 18.792C31.9617 19.3298 31.9185 19.7859 31.9338 20.1375C31.9495 20.4958 32.0298 20.8944 32.3729 21.1596C32.7275 21.4337 33.1336 21.3912 33.4734 21.2918C33.7975 21.197 34.1954 21.0102 34.6549 20.7945L34.6906 20.7777L34.6921 20.777L34.9462 20.6587L34.9476 20.6581C35.0942 20.5893 35.1766 20.551 35.2406 20.5274C35.2691 20.5168 35.2852 20.5126 35.2937 20.5108C35.2957 20.5104 35.2973 20.5101 35.2985 20.5099C35.2995 20.5097 35.3003 20.5096 35.3006 20.5096L35.3019 20.5095L35.3019 20.5095H35.3019L35.302 20.5095L35.3024 20.5095C35.303 20.5096 35.305 20.5099 35.3089 20.5107C35.3173 20.5125 35.3335 20.5168 35.3622 20.5274C35.4266 20.5512 35.5097 20.5896 35.6571 20.6585L35.6576 20.6587L35.911 20.7766L35.9133 20.7777L35.9344 20.7876C36.3994 21.007 36.8017 21.1968 37.1296 21.2924C37.4706 21.3919 37.8757 21.433 38.2301 21.1603L38.2309 21.1596C38.574 20.8944 38.6543 20.4958 38.67 20.1375C38.6854 19.7859 38.6422 19.3298 38.5912 18.792L38.5877 18.7551L38.5876 18.7543L38.5592 18.4597L38.5592 18.4596C38.524 18.0948 38.5289 18.0528 38.539 18.0204L38.5399 18.0176C38.5488 17.9882 38.5659 17.9516 38.7944 17.681L38.7957 17.6794L38.98 17.4593L38.9803 17.4589L39.0048 17.4298C39.3415 17.0284 39.6295 16.6852 39.8121 16.3893C40.003 16.08 40.149 15.7126 40.024 15.3019L40.0239 15.3014C39.8961 14.8831 39.5627 14.6689 39.2284 14.5348C38.9151 14.4092 38.4916 14.3115 38.0032 14.1988C37.9885 14.1954 37.9738 14.192 37.9591 14.1886C37.9587 14.1885 37.9584 14.1884 37.9581 14.1883L37.6889 14.125L37.6889 14.125L37.6858 14.1243C37.528 14.0882 37.4406 14.068 37.376 14.0473C37.3473 14.0381 37.332 14.0315 37.3241 14.0276C37.3173 14.0243 37.3151 14.0226 37.3141 14.0218L37.3134 14.0212C37.2953 14.0072 37.2698 13.982 37.0959 13.6629Z" fill="white" stroke="#022543"/>
<path d="M66.945 19.7273V25.267H52.7078V19.7273H66.945ZM55.4223 41V19.1179C55.4223 17.3636 55.7362 15.9094 56.3641 14.7553C56.9919 13.6012 57.8783 12.7379 59.0232 12.1655C60.1681 11.593 61.5161 11.3068 63.0672 11.3068C64.0367 11.3068 64.9784 11.3807 65.8925 11.5284C66.8158 11.6761 67.499 11.8054 67.9422 11.9162L66.8343 17.4006C66.5573 17.3175 66.2341 17.2528 65.8648 17.2067C65.4955 17.1513 65.1723 17.1236 64.8953 17.1236C64.1752 17.1236 63.6904 17.2759 63.4411 17.5806C63.1919 17.8853 63.0672 18.2869 63.0672 18.7855V41H55.4223ZM79.4407 41.3878C77.1694 41.3878 75.212 40.9538 73.5685 40.0859C71.9343 39.2088 70.674 37.9531 69.7876 36.3189C68.9105 34.6754 68.4719 32.7088 68.4719 30.419C68.4719 28.2216 68.9151 26.3011 69.8015 24.6577C70.6879 23.0142 71.9389 21.7354 73.5547 20.8214C75.1705 19.9073 77.0771 19.4503 79.2745 19.4503C80.881 19.4503 82.3352 19.6996 83.6371 20.1982C84.9389 20.6967 86.0515 21.4215 86.9748 22.3725C87.8981 23.3143 88.609 24.4592 89.1076 25.8072C89.6062 27.1552 89.8555 28.674 89.8555 30.3636V32.1364H70.854V27.9261H82.82C82.8107 27.3168 82.6538 26.7812 82.3491 26.3196C82.0536 25.8487 81.652 25.484 81.1442 25.2255C80.6456 24.9577 80.0778 24.8239 79.4407 24.8239C78.8221 24.8239 78.2543 24.9577 77.7372 25.2255C77.2202 25.484 76.8047 25.8441 76.4908 26.3058C76.1861 26.7674 76.0245 27.3075 76.006 27.9261V32.4688C76.006 33.152 76.1491 33.7614 76.4354 34.2969C76.7216 34.8324 77.1325 35.2525 77.668 35.5572C78.2035 35.8619 78.8498 36.0142 79.6069 36.0142C80.1332 36.0142 80.6133 35.9403 81.0472 35.7926C81.4904 35.6449 81.869 35.4325 82.1829 35.1555C82.4968 34.8693 82.7276 34.5277 82.8754 34.1307H89.8555C89.6154 35.608 89.0476 36.8913 88.152 37.9808C87.2564 39.0611 86.07 39.9013 84.5927 40.5014C83.1246 41.0923 81.4073 41.3878 79.4407 41.3878ZM112.42 26.652H105.384C105.347 26.218 105.195 25.8441 104.927 25.5302C104.659 25.2163 104.313 24.9762 103.888 24.81C103.473 24.6346 103.011 24.5469 102.503 24.5469C101.848 24.5469 101.285 24.6669 100.814 24.907C100.343 25.147 100.112 25.4886 100.121 25.9318C100.112 26.2457 100.246 26.5366 100.523 26.8043C100.809 27.0721 101.359 27.2798 102.171 27.4276L106.492 28.2031C108.671 28.6001 110.291 29.2695 111.353 30.2113C112.424 31.1438 112.964 32.3949 112.974 33.9645C112.964 35.4787 112.512 36.7944 111.616 37.9116C110.73 39.0195 109.516 39.8782 107.974 40.4876C106.441 41.0877 104.692 41.3878 102.725 41.3878C99.4751 41.3878 96.9314 40.723 95.094 39.3935C93.2659 38.0639 92.2456 36.3097 92.0333 34.1307H99.6228C99.7243 34.8047 100.057 35.3263 100.62 35.6957C101.192 36.0558 101.913 36.2358 102.78 36.2358C103.482 36.2358 104.059 36.1158 104.512 35.8757C104.973 35.6357 105.209 35.294 105.218 34.8509C105.209 34.4446 105.006 34.1214 104.609 33.8814C104.221 33.6413 103.611 33.4474 102.78 33.2997L99.0134 32.6349C96.8437 32.2564 95.2187 31.5362 94.1384 30.4744C93.0581 29.4126 92.5226 28.0462 92.5319 26.375C92.5226 24.8977 92.9104 23.6467 93.6952 22.6218C94.4893 21.5877 95.6203 20.8029 97.0883 20.2674C98.5656 19.7227 100.315 19.4503 102.337 19.4503C105.412 19.4503 107.835 20.0874 109.608 21.3615C111.39 22.6357 112.327 24.3991 112.42 26.652ZM128.589 19.7273V25.267H114.573V19.7273H128.589ZM117.288 14.6307H124.933V34.1584C124.933 34.4538 124.983 34.7031 125.085 34.9062C125.187 35.1001 125.343 35.2479 125.556 35.3494C125.768 35.4418 126.041 35.4879 126.373 35.4879C126.604 35.4879 126.872 35.4602 127.176 35.4048C127.49 35.3494 127.721 35.3033 127.869 35.2663L128.977 40.6399C128.635 40.7415 128.146 40.8661 127.509 41.0138C126.881 41.1616 126.133 41.2585 125.265 41.3047C123.511 41.397 122.038 41.217 120.847 40.7646C119.656 40.3029 118.76 39.5781 118.16 38.5902C117.56 37.6023 117.269 36.3651 117.288 34.8786V14.6307ZM131.708 41V19.7273H139.353V41H131.708ZM135.531 17.5114C134.497 17.5114 133.61 17.1697 132.872 16.4865C132.133 15.8033 131.764 14.9815 131.764 14.0213C131.764 13.0611 132.133 12.2393 132.872 11.5561C133.61 10.8729 134.497 10.5312 135.531 10.5312C136.574 10.5312 137.461 10.8729 138.19 11.5561C138.929 12.2393 139.298 13.0611 139.298 14.0213C139.298 14.9815 138.929 15.8033 138.19 16.4865C137.461 17.1697 136.574 17.5114 135.531 17.5114ZM164.687 19.7273L157.541 41H148.677L141.531 19.7273H149.564L152.998 33.7983H153.22L156.655 19.7273H164.687Z" fill="#022543"/>
<path d="M167.735 41.2045C167.241 41.2045 166.817 41.032 166.463 40.6868C166.114 40.3374 165.941 39.9134 165.946 39.4148C165.941 38.929 166.114 38.5135 166.463 38.1683C166.817 37.8232 167.241 37.6506 167.735 37.6506C168.204 37.6506 168.617 37.8232 168.975 38.1683C169.338 38.5135 169.521 38.929 169.525 39.4148C169.521 39.7472 169.434 40.0497 169.263 40.3224C169.097 40.5909 168.88 40.8061 168.611 40.968C168.343 41.1257 168.051 41.2045 167.735 41.2045ZM176.147 41.179C175.099 41.179 174.196 40.9787 173.437 40.5781C172.683 40.1733 172.101 39.5937 171.692 38.8395C171.287 38.081 171.085 37.1733 171.085 36.1165C171.085 35.1023 171.289 34.2159 171.698 33.4574C172.108 32.6989 172.685 32.1087 173.431 31.6868C174.176 31.2649 175.056 31.054 176.071 31.054C176.812 31.054 177.483 31.169 178.084 31.3991C178.685 31.6293 179.198 31.9638 179.625 32.4027C180.051 32.8374 180.379 33.3658 180.609 33.9879C180.839 34.6101 180.954 35.3111 180.954 36.0909V36.9091H172.184V34.9659H177.707C177.703 34.6847 177.63 34.4375 177.49 34.2244C177.353 34.0071 177.168 33.8388 176.934 33.7195C176.703 33.5959 176.441 33.5341 176.147 33.5341C175.862 33.5341 175.6 33.5959 175.361 33.7195C175.122 33.8388 174.931 34.005 174.786 34.218C174.645 34.4311 174.571 34.6804 174.562 34.9659V37.0625C174.562 37.3778 174.628 37.6591 174.76 37.9062C174.892 38.1534 175.082 38.3473 175.329 38.4879C175.576 38.6286 175.875 38.6989 176.224 38.6989C176.467 38.6989 176.688 38.6648 176.889 38.5966C177.093 38.5284 177.268 38.4304 177.413 38.3026C177.558 38.1705 177.664 38.0128 177.733 37.8295H180.954C180.843 38.5114 180.581 39.1037 180.168 39.6065C179.755 40.1051 179.207 40.4929 178.525 40.7699C177.848 41.0426 177.055 41.179 176.147 41.179ZM192.043 31.1818L188.744 41H184.653L181.355 31.1818H185.063L186.648 37.6761H186.75L188.335 31.1818H192.043ZM197.452 41.179C196.404 41.179 195.5 40.9787 194.742 40.5781C193.987 40.1733 193.406 39.5937 192.997 38.8395C192.592 38.081 192.389 37.1733 192.389 36.1165C192.389 35.1023 192.594 34.2159 193.003 33.4574C193.412 32.6989 193.99 32.1087 194.735 31.6868C195.481 31.2649 196.361 31.054 197.375 31.054C198.117 31.054 198.788 31.169 199.389 31.3991C199.99 31.6293 200.503 31.9638 200.929 32.4027C201.355 32.8374 201.684 33.3658 201.914 33.9879C202.144 34.6101 202.259 35.3111 202.259 36.0909V36.9091H193.489V34.9659H199.012C199.007 34.6847 198.935 34.4375 198.794 34.2244C198.658 34.0071 198.473 33.8388 198.238 33.7195C198.008 33.5959 197.746 33.5341 197.452 33.5341C197.166 33.5341 196.904 33.5959 196.666 33.7195C196.427 33.8388 196.235 34.005 196.09 34.218C195.95 34.4311 195.875 34.6804 195.867 34.9659V37.0625C195.867 37.3778 195.933 37.6591 196.065 37.9062C196.197 38.1534 196.387 38.3473 196.634 38.4879C196.881 38.6286 197.179 38.6989 197.529 38.6989C197.772 38.6989 197.993 38.6648 198.193 38.5966C198.398 38.5284 198.573 38.4304 198.718 38.3026C198.862 38.1705 198.969 38.0128 199.037 37.8295H202.259C202.148 38.5114 201.886 39.1037 201.473 39.6065C201.059 40.1051 200.512 40.4929 199.83 40.7699C199.152 41.0426 198.36 41.179 197.452 41.179ZM207.227 35.4773V41H203.699V31.1818H207.048V33.0483H207.15C207.363 32.4261 207.738 31.9382 208.275 31.5845C208.816 31.2308 209.447 31.054 210.167 31.054C210.862 31.054 211.465 31.2138 211.976 31.5334C212.492 31.8487 212.89 32.2834 213.172 32.8374C213.457 33.3913 213.598 34.0241 213.593 34.7358V41H210.065V35.4773C210.069 34.9915 209.946 34.6101 209.694 34.3331C209.447 34.0561 209.102 33.9176 208.659 33.9176C208.369 33.9176 208.116 33.9815 207.898 34.1094C207.685 34.233 207.521 34.4119 207.406 34.6463C207.291 34.8764 207.231 35.1534 207.227 35.4773ZM221.19 31.1818V33.7386H214.722V31.1818H221.19ZM215.975 28.8295H219.503V37.8423C219.503 37.9787 219.526 38.0938 219.573 38.1875C219.62 38.277 219.693 38.3452 219.791 38.392C219.889 38.4347 220.014 38.456 220.168 38.456C220.274 38.456 220.398 38.4432 220.538 38.4176C220.683 38.392 220.79 38.3707 220.858 38.3537L221.369 40.8338C221.212 40.8807 220.986 40.9382 220.692 41.0064C220.402 41.0746 220.057 41.1193 219.656 41.1406C218.847 41.1832 218.167 41.1001 217.617 40.8913C217.068 40.6783 216.654 40.3437 216.377 39.8878C216.1 39.4318 215.966 38.8608 215.975 38.1747V28.8295Z" fill="#002B1C" fill-opacity="0.24"/>
</svg>
